# xmcd
#
# Track frame offsets:
#	150
#	20293
#	34022
#	51572
#	64483
#	96786
#	121039
#	130612
#	167740
#	191811
#
# Disc length: 2948 seconds
#
# Revision: 3
# Processed by: cddbd v1.5.2PL0 Copyright (c) Steve Scherf et al.
# Submitted via: audiograbber 1.83.01
#
DISCID=860b820a
DTITLE=Blue Note Plays Jobim - Blue Note Plays Jobim
DYEAR=2005
DGENRE=Jazz
TTITLE0=Cassandra Wilson - Waters of March
TTITLE1=Bud Shank - Song of the Jet
TTITLE2=Eliane Elias - The Girl from Ipanema
TTITLE3=Duke Pearson and Flora Purim - Lamento
TTITLE4=Bireli Lagrene - Insensatez
TTITLE5=Duke Pearson and Airto Moreira with Stella Mars - O Amor Em Paz
TTITLE6=Earl Klugh - Triste
TTITLE7=Stanley Turrentine - Wave
TTITLE8=Cassandra Wilson - Corcovado
TTITLE9=Eliane Elias - Desafinado
EXTD=YEAR: 2005
EXTT0=
EXTT1=
EXTT2=
EXTT3=
EXTT4=
EXTT5=
EXTT6=
EXTT7=
EXTT8=
EXTT9=
PLAYORDER=
